<?xml version="1.0" encoding="UTF-8" standalone="no"?>
<svg
   xmlns:dc="http://purl.org/dc/elements/1.1/"
   xmlns:cc="http://creativecommons.org/ns#"
   xmlns:rdf="http://www.w3.org/1999/02/22-rdf-syntax-ns#"
   xmlns:svg="http://www.w3.org/2000/svg"
   xmlns="http://www.w3.org/2000/svg"
   viewBox="0 0 1056 816"
   height="816"
   width="1056"
   xml:space="preserve"
   id="svg2"
   version="1.1"><metadata
     id="metadata8"><rdf:RDF><cc:Work
         rdf:about=""><dc:format>image/svg+xml</dc:format><dc:type
           rdf:resource="http://purl.org/dc/dcmitype/StillImage" /></cc:Work></rdf:RDF></metadata><defs
     id="defs6"><clipPath
       id="clipPath18"
       clipPathUnits="userSpaceOnUse"><path
         id="path16"
         d="M 0,612 H 792 V 0 H 0 Z" /></clipPath></defs><g
     transform="matrix(1.3333333,0,0,-1.3333333,0,816)"
     id="g10"><g
       id="g12"><g
         clip-path="url(#clipPath18)"
         id="g14"><g
           transform="translate(376.5649,271.2432)"
           id="g20"><path
             id="path22"
             style="fill:#3c2bbc;fill-opacity:1;fill-rule:nonzero;stroke:none"
             d="m 0,0 c 5.855,25.352 11.702,50.931 17.535,76.549 0.053,0.235 -0.111,0.461 -0.337,0.457 C 12.806,76.936 7.684,76.827 2.049,76.694 1.894,76.69 1.759,76.576 1.722,76.415 -4.021,51.345 -9.776,26.422 -15.534,1.825 -15.585,1.608 -15.437,1.383 -15.223,1.354 -10.287,0.684 -5.33,0.142 -0.354,-0.27 -0.187,-0.283 -0.04,-0.17 0,0 m 33.688,11.923 c 4.232,18.664 8.456,37.315 12.674,55.881 0.052,0.23 -0.111,0.448 -0.332,0.449 -2.413,0.012 -4.686,0.026 -6.799,0.039 -0.162,0.001 -0.301,-0.118 -0.339,-0.286 -4.238,-18.666 -8.481,-37.39 -12.733,-56.098 -0.053,-0.233 0.11,-0.457 0.334,-0.454 2.176,0.029 4.469,0.088 6.862,0.18 0.158,0.006 0.296,0.125 0.333,0.289 m 28.029,65.388 c 1.311,-0.024 2.249,-1.308 1.94,-2.658 C 58.208,50.83 52.753,26.75 47.288,2.568 46.921,0.949 45.598,-0.262 44.045,-0.381 33.093,-1.247 20.092,-1.499 10.032,-0.96 8.713,-0.893 7.767,0.452 8.08,1.812 16.051,36.548 24,71.594 31.924,106.474 c 0.038,0.168 0.18,0.285 0.342,0.283 4.984,-0.079 9.953,-0.239 14.905,-0.482 0.218,-0.01 0.371,-0.23 0.32,-0.455 C 45.36,96.47 43.227,87.092 41.093,77.697 43.164,77.656 55.057,77.416 61.717,77.311 M 85.5,67.916 c -1.925,-8.291 -3.849,-16.631 -5.773,-25.013 -0.053,-0.231 0.114,-0.44 0.34,-0.422 2.229,0.179 4.478,0.368 6.739,0.566 0.156,0.014 0.293,0.136 0.329,0.296 1.905,8.251 3.81,16.455 5.717,24.605 0.051,0.22 -0.105,0.425 -0.324,0.422 C 90.337,68.347 88.149,68.326 85.972,68.307 85.748,68.306 85.553,68.142 85.5,67.916 M 77.596,33.603 c -1.344,-5.874 -2.687,-11.767 -4.031,-17.677 -0.055,-0.241 0.124,-0.452 0.356,-0.418 2.262,0.335 4.54,0.689 6.828,1.065 0.149,0.025 0.276,0.147 0.312,0.302 0.644,2.823 1.289,5.643 1.933,8.457 0.036,0.156 0.164,0.278 0.317,0.299 5.09,0.709 10.24,1.501 15.362,2.364 0.231,0.039 0.41,-0.16 0.355,-0.395 C 97.659,21.706 96.292,15.784 94.923,9.836 94.671,8.741 93.81,7.839 92.75,7.567 83.466,5.146 67.419,2.069 57.148,0.913 55.762,0.749 54.701,2.044 55.027,3.491 c 5.427,23.889 10.844,47.631 16.258,71.072 0.292,1.27 1.394,2.165 2.632,2.137 9.101,-0.214 24.708,0.147 34.146,-0.033 1.282,-0.027 2.175,-1.205 1.871,-2.469 -2.802,-11.8 -5.6,-23.745 -8.394,-35.816 -0.272,-1.164 -1.253,-2.079 -2.408,-2.235 -4.682,-0.629 -9.395,-1.212 -14.055,-1.739 -2.514,-0.285 -5.011,-0.553 -7.481,-0.805 m -94.63,64.749 c 10.018,0.885 28.281,1.568 39.446,1.605 0.224,0.001 0.384,-0.224 0.332,-0.457 C 21.6,94.464 20.455,89.427 19.31,84.392 19.272,84.228 19.138,84.112 18.98,84.109 14.067,84.018 -0.875,83.599 -4.123,83.509 -4.278,83.504 -4.405,83.391 -4.442,83.231 -10.66,56.144 -16.889,29.274 -23.119,2.848 c -0.04,-0.172 -0.196,-0.28 -0.367,-0.251 -9.385,1.548 -18.689,3.549 -27.901,5.943 -0.141,0.036 -0.254,0.156 -0.288,0.302 -6.468,28.224 -12.939,55.914 -19.439,82.806 -0.047,0.196 0.08,0.387 0.277,0.417 4.978,0.762 9.982,1.488 15.009,2.165 0.171,0.023 0.333,-0.089 0.374,-0.262 1.195,-4.676 16.751,-71.97 17.815,-76.944 0.035,-0.152 0.158,-0.268 0.304,-0.292 0.199,-0.033 0.399,-0.065 0.599,-0.098 0.168,-0.028 0.321,0.076 0.361,0.244 6.344,26.585 12.696,53.731 19.039,81.197 0.035,0.153 0.155,0.263 0.302,0.277" /></g></g></g></g></svg>